<?xml version="1.0"?><svg xmlns="http://www.w3.org/2000/svg" xmlns:xlink="http://www.w3.org/1999/xlink" version="1.1" viewBox="0 0 24 24" style="enable-background:new 0 0 24 24;" xml:space="preserve"><style type="text/css">
	.st0{opacity:0.2;fill:none;stroke:#2c3e50;stroke-width:0.05;stroke-miterlimit:10;}
</style><g id="grid_system"/><g id="_icons"><path d="M18,10c-0.5527,0-1,0.4473-1,1s0.4473,1,1,1c2.2061,0,4-1.7939,4-4s-1.7939-4-4-4c-0.1816,0-0.457,0.0078-0.7422,0.0801   c-0.5361,0.1338-0.8623,0.6768-0.7275,1.2119c0.1338,0.5361,0.6748,0.8623,1.2119,0.7275C17.8223,6,17.9561,6,18,6   c1.1025,0,2,0.8975,2,2S19.1025,10,18,10z"/><path d="M15.6963,20.7666c0.6152-0.0791,1.1719-0.418,1.5264-0.9287c0.3555-0.5137,0.4766-1.1582,0.333-1.7676   c-0.002-0.0049-0.0029-0.0098-0.0039-0.0146l-0.0703-0.2803c-0.3389-1.4092-1.3086-2.5918-2.5938-3.1641v0.001   c-0.0439-0.0225-0.0869-0.042-0.1133-0.0527c-1.793-0.7422-3.7549-0.7412-5.5518-0.001c-1.3438,0.5547-2.3555,1.7568-2.708,3.2197   l-0.0684,0.2852c-0.1465,0.6104-0.0264,1.2559,0.3291,1.7705c0.3545,0.5137,0.9111,0.8535,1.5293,0.9326   C9.5234,20.9219,10.7656,21,11.998,21S14.4746,20.9219,15.6963,20.7666z M8.4219,18.6982   c-0.0244-0.0342-0.0488-0.0918-0.0303-0.1709l0.0674-0.2842c0.2021-0.8379,0.7734-1.5244,1.5273-1.8359   C10.6406,16.1367,11.3174,16,11.998,16c0.6816,0,1.3574,0.1367,1.9463,0.3779c0.0127,0.0068,0.0449,0.0205,0.0723,0.0322   c0.0186,0.0107,0.0381,0.0205,0.0586,0.0293c0.7207,0.3203,1.2666,0.9941,1.4639,1.8135l0.0703,0.2812   c0.0166,0.0742-0.0078,0.1309-0.0312,0.1641c-0.0234,0.0342-0.0654,0.0752-0.1348,0.084c-2.2754,0.2891-4.6162,0.2891-6.8857,0   C8.4863,18.7734,8.4443,18.7314,8.4219,18.6982z"/><path d="M7.5,8.5c0,2.4814,2.0186,4.5,4.5,4.5s4.5-2.0186,4.5-4.5S14.4814,4,12,4S7.5,6.0186,7.5,8.5z M14.5,8.5   c0,1.3789-1.1211,2.5-2.5,2.5S9.5,9.8789,9.5,8.5S10.6211,6,12,6S14.5,7.1211,14.5,8.5z"/><path d="M4.3516,18.957C4.3779,18.959,4.4043,18.96,4.4307,18.96c0.5166,0,0.9551-0.3975,0.9961-0.9219   c0.043-0.5508-0.3682-1.0322-0.9189-1.0752c-0.4961-0.0381-0.9824-0.0693-1.5098-0.0723l0.0596-0.2275   c0.1602-0.6123,0.6133-1.1123,1.2236-1.3408C4.832,15.1084,5.4111,15,6,15c0.1299,0,0.251,0.0078,0.4092,0.0176   c0.5391,0.0195,1.0107-0.3867,1.0449-0.9375c0.0332-0.5518-0.4004-1.0264-0.9521-1.0605   c-0.9951-0.0605-2.0029,0.0742-2.9326,0.4336c-1.208,0.4521-2.123,1.4639-2.4473,2.7061l-0.0576,0.2217   c-0.1426,0.5312-0.0449,1.0986,0.2666,1.5576c0.3311,0.4873,0.8652,0.8066,1.4609,0.875C3.3047,18.874,3.8281,18.916,4.3516,18.957   z"/><path d="M19.6484,18.957c-0.0264,0.002-0.0527,0.0029-0.0791,0.0029c-0.5166,0-0.9551-0.3975-0.9961-0.9219   c-0.043-0.5508,0.3682-1.0322,0.9189-1.0752c0.4961-0.0381,0.9824-0.0693,1.5098-0.0723l-0.0596-0.2275   c-0.1602-0.6123-0.6133-1.1123-1.2236-1.3408C19.168,15.1084,18.5889,15,18,15c-0.1299,0-0.251,0.0078-0.4092,0.0176   c-0.5391,0.0195-1.0107-0.3867-1.0449-0.9375c-0.0332-0.5518,0.4004-1.0264,0.9521-1.0605   c0.9951-0.0605,2.0029,0.0742,2.9326,0.4336c1.208,0.4521,2.123,1.4639,2.4473,2.7061l0.0576,0.2217   c0.1426,0.5312,0.0449,1.0986-0.2666,1.5576c-0.3311,0.4873-0.8652,0.8066-1.4609,0.875   C20.6953,18.874,20.1719,18.916,19.6484,18.957z"/><path d="M6,6c0.0439,0,0.1777,0,0.2578,0.0195C6.7891,6.1533,7.3359,5.8281,7.4697,5.292   c0.1348-0.5352-0.1914-1.0781-0.7275-1.2119C6.457,4.0078,6.1816,4,6,4C3.7939,4,2,5.7939,2,8s1.7939,4,4,4c0.5527,0,1-0.4473,1-1   s-0.4473-1-1-1c-1.1025,0-2-0.8975-2-2S4.8975,6,6,6z"/></g></svg>